<svg width="1600" height="900" viewBox="0 0 1600 900" fill="none" xmlns="http://www.w3.org/2000/svg">
  <defs>
    <linearGradient id="bg" x1="160" y1="80" x2="1440" y2="820" gradientUnits="userSpaceOnUse">
      <stop stop-color="#17191E"/>
      <stop offset="0.5" stop-color="#11141A"/>
      <stop offset="1" stop-color="#0B0D12"/>
    </linearGradient>
    <radialGradient id="glow" cx="0" cy="0" r="1" gradientUnits="userSpaceOnUse" gradientTransform="translate(348 196) rotate(35.1156) scale(689.856 410.463)">
      <stop stop-color="#C4FF47" stop-opacity="0.24"/>
      <stop offset="1" stop-color="#C4FF47" stop-opacity="0"/>
    </radialGradient>
    <linearGradient id="card" x1="319" y1="246" x2="1220" y2="752" gradientUnits="userSpaceOnUse">
      <stop stop-color="#1B1F27"/>
      <stop offset="1" stop-color="#12161D"/>
    </linearGradient>
  </defs>
  <rect width="1600" height="900" fill="url(#bg)"/>
  <rect width="1600" height="900" fill="url(#glow)"/>
  <rect x="160" y="126" width="1280" height="648" rx="34" fill="url(#card)" stroke="rgba(255,255,255,0.09)"/>
  <rect x="214" y="190" width="276" height="20" rx="10" fill="#C4FF47" fill-opacity="0.12"/>
  <rect x="214" y="246" width="840" height="44" rx="18" fill="#F2EEE8"/>
  <rect x="214" y="312" width="692" height="44" rx="18" fill="#F2EEE8"/>
  <rect x="214" y="394" width="234" height="18" rx="9" fill="#C4FF47" fill-opacity="0.18"/>
  <rect x="214" y="434" width="1030" height="12" rx="6" fill="#8B909E" fill-opacity="0.48"/>
  <rect x="214" y="462" width="960" height="12" rx="6" fill="#8B909E" fill-opacity="0.36"/>
  <rect x="214" y="490" width="812" height="12" rx="6" fill="#8B909E" fill-opacity="0.26"/>
  <rect x="1134" y="222" width="218" height="218" rx="26" fill="#13171E" stroke="rgba(255,255,255,0.08)"/>
  <circle cx="1243" cy="331" r="62" stroke="#C4FF47" stroke-width="12" stroke-opacity="0.78"/>
  <path d="M1221 331L1238 348L1272 314" stroke="#F2EEE8" stroke-width="14" stroke-linecap="round" stroke-linejoin="round"/>
  <rect x="1134" y="476" width="218" height="104" rx="24" fill="#13171E" stroke="rgba(255,255,255,0.08)"/>
  <rect x="1170" y="512" width="146" height="16" rx="8" fill="#C4FF47" fill-opacity="0.22"/>
  <rect x="1170" y="546" width="110" height="12" rx="6" fill="#8B909E" fill-opacity="0.45"/>
  <g opacity="0.88">
    <rect x="214" y="564" width="214" height="66" rx="20" fill="#C4FF47"/>
    <path d="M280 607H362" stroke="#0C1016" stroke-width="10" stroke-linecap="round"/>
    <path d="M336 581L362 607L336 633" stroke="#0C1016" stroke-width="10" stroke-linecap="round" stroke-linejoin="round"/>
  </g>
</svg>
